<svg width="50" height="50" viewBox="0 0 50 50" fill="none" xmlns="http://www.w3.org/2000/svg">
<circle cx="25" cy="25" r="24.75" fill="white" fill-opacity="0.2" stroke="white" stroke-width="0.5"/>
<path d="M35.8974 32.63L25.8074 15.37C25.7401 15.2575 25.645 15.1643 25.5311 15.0995C25.4172 15.0347 25.2884 15.0004 25.1574 15H24.8574C24.7263 15.0004 24.5976 15.0347 24.4837 15.0995C24.3698 15.1643 24.2746 15.2575 24.2074 15.37L14.0974 32.63C14.0335 32.7465 14 32.8772 14 33.01C14 33.1428 14.0335 33.2735 14.0974 33.39L14.2374 33.62C14.301 33.7364 14.3951 33.8333 14.5096 33.9003C14.6241 33.9672 14.7547 34.0017 14.8874 34H35.1074C35.24 34.0017 35.3706 33.9672 35.4852 33.9003C35.5997 33.8333 35.6938 33.7364 35.7574 33.62L35.8974 33.39C35.9613 33.2735 35.9948 33.1428 35.9948 33.01C35.9948 32.8772 35.9613 32.7465 35.8974 32.63V32.63ZM25.9974 29.5C25.9974 29.6326 25.9447 29.7598 25.851 29.8536C25.7572 29.9473 25.63 30 25.4974 30H24.4974C24.3648 30 24.2376 29.9473 24.1438 29.8536C24.0501 29.7598 23.9974 29.6326 23.9974 29.5V28.5C23.9974 28.3674 24.0501 28.2402 24.1438 28.1464C24.2376 28.0527 24.3648 28 24.4974 28H25.4974C25.63 28 25.7572 28.0527 25.851 28.1464C25.9447 28.2402 25.9974 28.3674 25.9974 28.5V29.5ZM25.7774 25.78C25.77 25.841 25.7405 25.8971 25.6944 25.9377C25.6482 25.9783 25.5888 26.0004 25.5274 26H24.4674C24.406 26.0004 24.3465 25.9783 24.3004 25.9377C24.2543 25.8971 24.2248 25.841 24.2174 25.78L23.8174 22.56C23.8089 22.4895 23.8155 22.418 23.8367 22.3502C23.858 22.2824 23.8935 22.22 23.9408 22.167C23.9881 22.114 24.0462 22.0717 24.1111 22.0429C24.176 22.0141 24.2464 21.9995 24.3174 22H25.6774C25.7484 21.9995 25.8187 22.0141 25.8837 22.0429C25.9486 22.0717 26.0067 22.114 26.054 22.167C26.1013 22.22 26.1368 22.2824 26.158 22.3502C26.1793 22.418 26.1859 22.4895 26.1774 22.56L25.7774 25.78Z" fill="white"/>
</svg>
