<svg width="50" height="50" viewBox="0 0 50 50" fill="none" xmlns="http://www.w3.org/2000/svg">
<circle cx="25" cy="25" r="24.75" fill="#57C182" fill-opacity="0.2" stroke="#57C182" stroke-width="0.5"/>
<path fill-rule="evenodd" clip-rule="evenodd" d="M25 35C30.5228 35 35 30.5228 35 25C35 19.4772 30.5228 15 25 15C19.4772 15 15 19.4772 15 25C15 30.5228 19.4772 35 25 35ZM24.4317 27.9835L29.7071 22.7084C30.0977 22.3174 30.0977 21.6838 29.7069 21.293C29.3162 20.9025 28.6825 20.9022 28.2916 21.293L23.7242 25.8605L21.7083 23.8446C21.3176 23.4539 20.684 23.4539 20.2931 23.8448C19.9023 24.2356 19.9023 24.8693 20.2931 25.2601L23.0163 27.9835C23.4073 28.3742 24.041 28.3742 24.4317 27.9835Z" fill="#57C182"/>
</svg>
