<svg width="50" height="50" viewBox="0 0 50 50" fill="none" xmlns="http://www.w3.org/2000/svg">
<circle cx="25" cy="25" r="24.75" fill="#FF5D7A" fill-opacity="0.2" stroke="#FF5D7A" stroke-width="0.5"/>
<path fill-rule="evenodd" clip-rule="evenodd" d="M35 25C35 30.5228 30.5228 35 25 35C19.4772 35 15 30.5228 15 25C15 19.4772 19.4772 15 25 15C30.5228 15 35 19.4772 35 25ZM21.2519 21.3796C21.8686 20.763 22.8683 20.763 23.4849 21.3796L24.936 22.8308L26.3874 21.3794C27.004 20.7628 28.0037 20.7628 28.6204 21.3794C29.237 21.996 29.237 22.9958 28.6204 23.6124L27.169 25.0637L28.6952 26.5899C29.3118 27.2065 29.3118 28.2063 28.6952 28.8229C28.0785 29.4395 27.0788 29.4395 26.4622 28.8229L24.936 27.2967L23.4101 28.8226C22.7935 29.4392 21.7937 29.4392 21.1771 28.8226C20.5605 28.206 20.5605 27.2063 21.1771 26.5897L22.7031 25.0637L21.2519 23.6126C20.6353 22.996 20.6353 21.9963 21.2519 21.3796Z" fill="#FF5D7A"/>
</svg>
