<svg width="50" height="50" viewBox="0 0 50 50" fill="none" xmlns="http://www.w3.org/2000/svg">
<circle cx="25" cy="25" r="24.75" fill="#6C9EFF" fill-opacity="0.2" stroke="#6C9EFF" stroke-width="0.5"/>
<g clip-path="url(#clip0)">
<path d="M21.8594 32.2286H22.7188V26.0214H21.8594C21.3847 26.0214 21 25.6367 21 25.162V23.1094C21 22.6347 21.3847 22.25 21.8594 22.25H26.6719C27.1465 22.25 27.5312 22.6347 27.5312 23.1094V32.2286H28.3906C28.8653 32.2286 29.25 32.6133 29.25 33.088V35.1406C29.25 35.6153 28.8653 36 28.3906 36H21.8594C21.3847 36 21 35.6153 21 35.1406V33.088C21 32.6133 21.3847 32.2286 21.8594 32.2286ZM25.125 14C23.4163 14 22.0312 15.3851 22.0312 17.0938C22.0312 18.8024 23.4163 20.1875 25.125 20.1875C26.8337 20.1875 28.2188 18.8024 28.2188 17.0938C28.2188 15.3851 26.8336 14 25.125 14Z" fill="#6C9EFF"/>
</g>
<defs>
<clipPath id="clip0">
<rect width="8.25" height="22" fill="white" transform="translate(21 14)"/>
</clipPath>
</defs>
</svg>
