<svg width="14" height="14" viewBox="0 0 14 14" fill="none" xmlns="http://www.w3.org/2000/svg">
<path fill-rule="evenodd" clip-rule="evenodd" d="M6.99985 0C7.20613 0 7.40396 0.0819433 7.54982 0.227803C7.69567 0.373663 7.77762 0.571491 7.77762 0.777768V6.99991C7.77762 7.20618 7.69567 7.40401 7.54982 7.54987C7.40396 7.69573 7.20613 7.77768 6.99985 7.77768H0.777762C0.571486 7.77768 0.37366 7.69573 0.227801 7.54987C0.0819427 7.40401 0 7.20618 0 6.99991C0 6.79363 0.0819427 6.5958 0.227801 6.44994C0.37366 6.30408 0.571486 6.22214 0.777762 6.22214H6.22209V0.777768C6.22209 0.571491 6.30404 0.373663 6.44989 0.227803C6.59575 0.0819433 6.79358 0 6.99985 0Z" fill="white"/>
<path fill-rule="evenodd" clip-rule="evenodd" d="M6.22241 6.99945C6.22241 6.79317 6.30435 6.59534 6.45021 6.44948C6.59607 6.30362 6.7939 6.22168 7.00017 6.22168H13.2223C13.4286 6.22168 13.6264 6.30362 13.7722 6.44948C13.9181 6.59534 14 6.79317 14 6.99945C14 7.20572 13.9181 7.40355 13.7722 7.54941C13.6264 7.69527 13.4286 7.77721 13.2223 7.77721H7.77794V13.2216C7.77794 13.4279 7.696 13.6257 7.55014 13.7716C7.40428 13.9174 7.20645 13.9994 7.00017 13.9994C6.7939 13.9994 6.59607 13.9174 6.45021 13.7716C6.30435 13.6257 6.22241 13.4279 6.22241 13.2216V6.99945Z" fill="white"/>
</svg>
