<svg width="11" height="6" viewBox="0 0 11 6" fill="none" xmlns="http://www.w3.org/2000/svg">
<path d="M0.00141808 0.785355C0.00106046 0.602177 0.0648565 0.424657 0.181732 0.28361C0.247546 0.204226 0.328376 0.138606 0.419589 0.0905076C0.510802 0.0424092 0.610607 0.0127778 0.71329 0.00331061C0.815972 -0.00615657 0.919514 0.0047266 1.01798 0.0353365C1.11645 0.0659465 1.20792 0.115681 1.28714 0.181693L5.48925 3.6939L9.6992 0.307131C9.77939 0.242009 9.87166 0.193378 9.97071 0.164032C10.0698 0.134686 10.1736 0.125205 10.2763 0.136133C10.3791 0.147061 10.4786 0.178182 10.5693 0.227709C10.6599 0.277236 10.7399 0.344191 10.8046 0.424727C10.876 0.505841 10.9298 0.600833 10.9627 0.703739C10.9956 0.806645 11.0069 0.915246 10.9959 1.02272C10.9849 1.1302 10.9517 1.23424 10.8986 1.3283C10.8454 1.42236 10.7734 1.50442 10.687 1.56933L5.98315 5.35593C5.84287 5.47124 5.66692 5.53428 5.48533 5.53428C5.30374 5.53428 5.12778 5.47124 4.9875 5.35593L0.28365 1.43605C0.188775 1.35741 0.113777 1.2575 0.0647401 1.14445C0.0157032 1.03139 -0.00599102 0.908365 0.00141808 0.785355Z" fill="#ffffff"/>
</svg>
