<svg width="11" height="6" viewBox="0 0 11 6" fill="none" xmlns="http://www.w3.org/2000/svg">
<path d="M0.00141808 4.74895C0.00106046 4.93212 0.0648565 5.10964 0.181732 5.25069C0.247546 5.33008 0.328376 5.3957 0.419589 5.44379C0.510802 5.49189 0.610607 5.52152 0.71329 5.53099C0.815972 5.54046 0.919514 5.52958 1.01798 5.49897C1.11645 5.46836 1.20792 5.41862 1.28714 5.35261L5.48925 1.8404L9.6992 5.22717C9.77939 5.29229 9.87166 5.34092 9.97071 5.37027C10.0698 5.39962 10.1736 5.4091 10.2763 5.39817C10.3791 5.38724 10.4786 5.35612 10.5693 5.30659C10.6599 5.25707 10.7399 5.19011 10.8046 5.10958C10.876 5.02846 10.9298 4.93347 10.9627 4.83056C10.9956 4.72766 11.0069 4.61906 10.9959 4.51158C10.9849 4.4041 10.9517 4.30007 10.8986 4.206C10.8454 4.11194 10.7734 4.02988 10.687 3.96497L5.98315 0.178368C5.84287 0.06306 5.66692 2.35981e-05 5.48533 2.36061e-05C5.30374 2.3614e-05 5.12778 0.0630601 4.9875 0.178368L0.28365 4.09825C0.188775 4.17689 0.113777 4.2768 0.0647401 4.38986C0.0157032 4.50291 -0.00599102 4.62594 0.00141808 4.74895Z" fill="#ffffff"/>
</svg>
