<svg width="16" height="16" viewBox="0 0 16 16" fill="none" xmlns="http://www.w3.org/2000/svg">
<path fill-rule="evenodd" clip-rule="evenodd" d="M8 -6.99382e-07C3.58172 -1.08564e-06 1.08564e-06 3.58172 6.99382e-07 8C3.13124e-07 12.4183 3.58172 16 8 16C12.4183 16 16 12.4183 16 8C16 3.58172 12.4183 -3.13124e-07 8 -6.99382e-07ZM7.2 12C7.2 12.4418 7.55817 12.8 8 12.8C8.44183 12.8 8.8 12.4418 8.8 12L8.8 7.2C8.8 6.75817 8.44183 6.4 8 6.4C7.55817 6.4 7.2 6.75817 7.2 7.2L7.2 12ZM8 3.2C7.55817 3.2 7.2 3.55817 7.2 4C7.2 4.44183 7.55817 4.8 8 4.8C8.44183 4.8 8.8 4.44183 8.8 4C8.8 3.55817 8.44183 3.2 8 3.2Z" fill="#F1B8AB"/>
</svg>
