<svg xmlns="http://www.w3.org/2000/svg" xmlns:xlink="http://www.w3.org/1999/xlink" width="26" height="38" viewBox="0 0 26 38">
    <defs>
        <path id="a" d="M15.96 23.96a.97.97 0 0 1-.96-.974.97.97 0 0 1 .96-.973h3.476c.432 0 .817.292.929.714l3.923 14.369h10.698l3.555-8.271h-11.85a.97.97 0 0 1-.961-.973.97.97 0 0 1 .96-.973h13.325a.95.95 0 0 1 .8.437.995.995 0 0 1 .08.925l-4.388 10.217a.963.963 0 0 1-.88.584h-12.06a.963.963 0 0 1-.928-.714L18.715 23.96h-2.754zm6.695 21.926c-1.201 0-2.178-.99-2.178-2.206s.977-2.205 2.178-2.205 2.178.989 2.178 2.205c0 1.216-.977 2.206-2.178 2.206zm13.612 0c-1.137 0-2.082-.908-2.162-2.06-.08-1.2.817-2.27 2.018-2.351a2.193 2.193 0 0 1 2.322 2.043c.032.6-.144 1.168-.528 1.605a2.164 2.164 0 0 1-1.49.763h-.16z"/>
        <path id="c" d="M29.043 18.099l2.371-2.375a1 1 0 0 1 1.416 1.413l-4.061 4.067a1 1 0 0 1-1.416 0l-4.06-4.067a1 1 0 0 1 1.415-1.413l2.335 2.339V9a1 1 0 1 1 2 0v9.099z"/>
    </defs>
    <g fill="none" fill-rule="evenodd" transform="translate(-15 -8)">
        <g transform="translate(0 .074)">
            <mask id="b" fill="#fff">
                <use xlink:href="#a"/>
            </mask>
            <use fill="#2D2D2D" xlink:href="#a"/>
            <g fill="#2D2D2D" mask="url(#b)">
                <path d="M0 .926h63v63H0z"/>
            </g>
        </g>
        <mask id="d" fill="#fff">
            <use xlink:href="#c"/>
        </mask>
        <use fill="#2D2D2D" fill-rule="nonzero" xlink:href="#c"/>
        <g fill="#2D2D2D" mask="url(#d)">
            <path d="M-2-13h63v63H-2z"/>
        </g>
    </g>
</svg>
