<?xml version="1.0" encoding="UTF-8"?>
<svg width="205px" height="197px" viewBox="0 0 205 197" version="1.1" xmlns="http://www.w3.org/2000/svg" xmlns:xlink="http://www.w3.org/1999/xlink">
    <!-- Generator: Sketch 53.2 (72643) - https://sketchapp.com -->
    <title>Shape</title>
    <desc>Created with Sketch.</desc>
    <g id="Page-1" stroke="none" stroke-width="1" fill="none" fill-rule="evenodd">
        <g id="Artboard" transform="translate(-34.000000, -38.000000)" fill="#2B3C60" fill-rule="nonzero">
            <path d="M152.201285,106.454608 C152.201285,117.477981 161.049694,126.414191 171.981182,126.414191 L218.576388,126.414191 C227.094614,126.414191 234,133.375748 234,141.967484 C234,150.55733 227.101048,157.520778 218.576388,157.520778 L171.981182,157.520778 C161.057047,157.520778 152.201285,166.460414 152.201285,177.479451 L152.201285,219.455089 C152.201285,228.040306 145.300481,235 136.783726,235 C128.268844,235 121.366167,228.036321 121.366167,219.455089 L121.366167,177.479451 C121.366167,166.45658 112.508549,157.520778 101.588581,157.520778 L49.4236116,157.520778 C40.9053861,157.520778 34,150.559219 34,141.967484 C34,138.110056 35.3912588,134.580612 37.6962306,131.862475 C38.0668253,131.389616 38.4685637,130.933437 38.9014495,130.496739 L126.078089,42.5526071 C132.096428,36.4812833 141.854861,36.4820677 147.877116,42.557342 C151.512576,46.2248077 152.954671,51.2663889 152.201285,56.022711 L152.201285,106.454608 Z M123,127 L123,91 L87,127 L123,127 Z M181.161055,41 C189.804923,40.9998938 192.81902,48.3439831 192.805646,52.1911739 L193.275494,79.5369355 C193.275494,81.9386358 192.359692,92.3398291 205.041525,92.3398291 C217.723357,92.3398291 217.389457,82.1403796 217.389457,79.738679 L217.389457,52.1916586 C217.396615,50.1327215 217.537522,41 227.996621,41 C238.45572,41 239,50.1302364 239,52.1911739 L238.897458,81.7134348 C238.897458,110.163531 228.140886,111 204.860208,111 L190.499323,111 C179.381672,111 170.369035,102.101441 170.369035,91.1101592 L170.369035,81.7134348 L170,52.191454 C170,48.3440485 172.517188,41.0001062 181.161055,41 Z" id="Shape"></path>
        </g>
    </g>
</svg>